# xmcd
#
# Track frame offsets:
#	150
#	18472
#	35410
#
# Disc length: 734 seconds
#
# Revision: 1
# Processed by: cddbd v1.5.2PL0 Copyright (c) Steve Scherf et al.
# Submitted via: EasyCDDAExtractor 2010.6.0.0
#
DISCID=1b02dc03
DTITLE=Snowpony - John Brown
DYEAR=1998
DGENRE=Valse
TTITLE0=John Brown (Triumphal March)
TTITLE1=Happy Are The Dead
TTITLE2=Golden Carriage
EXTD=
EXTT0=
EXTT1=
EXTT2=
PLAYORDER=
